<svg xmlns="http://www.w3.org/2000/svg" width="900" height="480" viewBox="0 0 900 480">
<rect width="100%" height="100%" fill="white"/>
<text x="450.0" y="32" text-anchor="middle" font-family="Arial" font-size="20" font-weight="700">Dynamic-Feature Detection Lift on VIODE GT Masks</text>
<text x="22" y="240.0" text-anchor="middle" font-family="Arial" font-size="14" transform="rotate(-90 22 240.0)">precision lift (x)</text>
<line x1="80" y1="320.8" x2="870" y2="320.8" stroke="#333" stroke-width="1.2"/>
<line x1="80" y1="70" x2="80" y2="355" stroke="#333"/>
<line x1="75" y1="355.0" x2="80" y2="355.0" stroke="#333"/>
<text x="70" y="359.0" text-anchor="end" font-family="Arial" font-size="12">-5</text>
<line x1="75" y1="320.8" x2="80" y2="320.8" stroke="#333"/>
<text x="70" y="324.8" text-anchor="end" font-family="Arial" font-size="12">0</text>
<line x1="75" y1="70.0" x2="80" y2="70.0" stroke="#333"/>
<text x="70" y="74.0" text-anchor="end" font-family="Arial" font-size="12">37</text>
<rect x="95.8" y="104.2" width="81.3" height="216.7" fill="#2a9d55" opacity="0.88"/>
<text x="136.4" y="98.2" text-anchor="middle" font-family="Arial" font-size="11">+31.7</text>
<text x="136.4" y="373" text-anchor="end" font-family="Arial" font-size="11" transform="rotate(-45 136.4 373)">city_day 1</text>
<rect x="208.7" y="237.9" width="81.3" height="82.9" fill="#2a9d55" opacity="0.88"/>
<text x="249.3" y="231.9" text-anchor="middle" font-family="Arial" font-size="11">+12.1</text>
<text x="249.3" y="373" text-anchor="end" font-family="Arial" font-size="11" transform="rotate(-45 249.3 373)">city_day 2</text>
<rect x="321.5" y="263.9" width="81.3" height="56.9" fill="#2a9d55" opacity="0.88"/>
<text x="362.1" y="257.9" text-anchor="middle" font-family="Arial" font-size="11">+8.3</text>
<text x="362.1" y="373" text-anchor="end" font-family="Arial" font-size="11" transform="rotate(-45 362.1 373)">city_day 3</text>
<rect x="434.4" y="300.2" width="81.3" height="20.6" fill="#2a9d55" opacity="0.88"/>
<text x="475.0" y="294.2" text-anchor="middle" font-family="Arial" font-size="11">+3.0</text>
<text x="475.0" y="373" text-anchor="end" font-family="Arial" font-size="11" transform="rotate(-45 475.0 373)">city_night 2</text>
<rect x="547.2" y="301.1" width="81.3" height="19.7" fill="#2a9d55" opacity="0.88"/>
<text x="587.9" y="295.1" text-anchor="middle" font-family="Arial" font-size="11">+2.9</text>
<text x="587.9" y="373" text-anchor="end" font-family="Arial" font-size="11" transform="rotate(-45 587.9 373)">city_night 3</text>
<rect x="660.1" y="310.7" width="81.3" height="10.1" fill="#2a9d55" opacity="0.88"/>
<text x="700.7" y="304.7" text-anchor="middle" font-family="Arial" font-size="11">+1.5</text>
<text x="700.7" y="373" text-anchor="end" font-family="Arial" font-size="11" transform="rotate(-45 700.7 373)">parking 2</text>
<rect x="772.9" y="311.1" width="81.3" height="9.7" fill="#2a9d55" opacity="0.88"/>
<text x="813.6" y="305.1" text-anchor="middle" font-family="Arial" font-size="11">+1.4</text>
<text x="813.6" y="373" text-anchor="end" font-family="Arial" font-size="11" transform="rotate(-45 813.6 373)">parking 3</text>
</svg>
